<svg xmlns="http://www.w3.org/2000/svg" width="118" height="118" viewBox="0 0 118 118">
    <g fill="#FFF" fill-rule="nonzero">
        <path d="M114.934 5.618l-2.551-2.552c-5.05-5.048-13.54-3.669-16.732 2.715L89 19.083 98.917 29l13.301-6.65c6.385-3.193 7.764-11.685 2.716-16.732zm-5.83 10.501l-8.812 4.407-2.818-2.818 4.406-8.812c1.064-2.129 3.895-2.587 5.577-.905l2.552 2.551c1.683 1.683 1.223 4.513-.905 5.577zM21 114.48a11.979 11.979 0 0 0 16.964 0l4.982-4.989c12.498-12.513 22.058-28 27.647-44.789A17.49 17.49 0 0 1 74.79 57.9L93 39.782 78.236 25 60.033 43.112a17.478 17.478 0 0 1-6.8 4.207C36.464 52.916 20.995 62.487 8.497 75.001l-4.982 4.988c-4.688 4.694-4.688 12.292 0 16.985L21 114.48zm62.142-74.714l-4.937 4.911-4.92-4.926 4.936-4.912 4.92 4.927zM55.433 53.93a24.451 24.451 0 0 0 9.513-5.884l3.401-3.384 4.921 4.927-3.393 3.377a24.516 24.516 0 0 0-5.885 9.532 106.873 106.873 0 0 1-5.077 12.53h-9.792a10.376 10.376 0 0 0-2.416-3.791 10.403 10.403 0 0 0-3.785-2.426v-9.797a106.687 106.687 0 0 1 12.513-5.084zM41.785 81.09a3.476 3.476 0 0 1-4.921 0 3.493 3.493 0 0 1 0-4.927 3.476 3.476 0 0 1 4.92 0 3.493 3.493 0 0 1 0 4.927zM8.438 84.917l4.982-4.99a107.81 107.81 0 0 1 22.54-17.243v6.046a10.38 10.38 0 0 0-4.017 2.507c-4.071 4.075-4.071 10.706 0 14.781a10.425 10.425 0 0 0 17.26-4.025h6.046a107.93 107.93 0 0 1-17.223 22.57l-4.982 4.99a5.028 5.028 0 0 1-7.123 0L8.438 92.047a5.044 5.044 0 0 1 0-7.131zM105 35h13v6h-13zM77 0h6v13h-6zM64 19.196L59.196 24 50 14.804 54.804 10zM103.196 67L94 57.804 98.804 53 108 62.196z"/>
        <path d="M18.75 84L33 98.25 28.25 103 14 88.75z"/>
    </g>
</svg>
