<svg xmlns="http://www.w3.org/2000/svg" width="70" height="70" viewBox="0 0 70 70">
    <g fill="none" fill-rule="nonzero">
        <path fill="#6E6AEA" d="M70 35c0 6.909-2.05 13.628-5.93 19.43a2.735 2.735 0 0 1-4.547-3.04c3.277-4.9 5.008-10.567 5.008-16.39C64.531 18.717 51.283 5.469 35 5.469S5.469 18.717 5.469 35 18.717 64.531 35 64.531c5.4 0 10.684-1.47 15.277-4.252a2.734 2.734 0 0 1 2.833 4.677A34.943 34.943 0 0 1 35 70c-9.349 0-18.138-3.64-24.749-10.251C3.641 53.139 0 44.349 0 35c0-9.349 3.64-18.138 10.251-24.749C16.861 3.641 25.651 0 35 0c9.349 0 18.138 3.64 24.749 10.251C66.359 16.861 70 25.651 70 35z"/>
        <g fill="#FFF">
            <path d="M35.479 53.958C25.289 53.958 17 45.667 17 35.478S25.289 17 35.479 17c10.19 0 18.478 8.29 18.478 18.479 0 10.188-8.289 18.479-18.478 18.479zm0-34.255c-8.699 0-15.775 7.077-15.775 15.775 0 8.697 7.076 15.774 15.775 15.774 8.698 0 15.773-7.077 15.773-15.774 0-8.698-7.076-15.775-15.773-15.775z"/>
            <path d="M27.426 44.462a1.35 1.35 0 0 1-.976-2.286 12.88 12.88 0 0 1 9.378-4.002c3.172 0 6.224 1.155 8.599 3.253a1.352 1.352 0 1 1-1.792 2.026 10.266 10.266 0 0 0-6.807-2.575c-2.829 0-5.467 1.126-7.426 3.166-.266.278-.62.418-.976.418z"/>
            <g transform="translate(29.333 31.389)">
                <circle cx="1.968" cy="2.304" r="1.784"/>
                <circle cx="10.324" cy="2.304" r="1.784"/>
            </g>
        </g>
    </g>
</svg>
