<svg xmlns="http://www.w3.org/2000/svg" width="42" height="42" viewBox="0 0 42 42">
    <g fill="none" fill-rule="nonzero">
        <path fill="#FBBB00" d="M9.308 25.381L7.846 30.84l-5.343.113A20.906 20.906 0 0 1 0 21c0-3.482.847-6.766 2.348-9.658h.001l4.757.872 2.084 4.73A12.483 12.483 0 0 0 8.516 21c0 1.542.28 3.019.792 4.381z"/>
        <path fill="#518EF8" d="M41.633 17.077c.241 1.27.367 2.582.367 3.923 0 1.503-.158 2.97-.46 4.385a20.995 20.995 0 0 1-7.393 11.992l-.001-.002-5.992-.305-.848-5.294a12.516 12.516 0 0 0 5.385-6.391H21.46v-8.308h20.172z"/>
        <path fill="#28B446" d="M34.146 37.375v.002A20.911 20.911 0 0 1 21 42c-7.997 0-14.95-4.47-18.497-11.048l6.805-5.57c1.774 4.732 6.34 8.102 11.692 8.102 2.3 0 4.456-.622 6.306-1.708l6.84 5.6z"/>
        <path fill="#F14336" d="M34.404 4.835l-6.803 5.57A12.413 12.413 0 0 0 21 8.515c-5.474 0-10.125 3.524-11.81 8.427l-6.84-5.6h-.002C5.843 4.602 12.884 0 21 0c5.095 0 9.767 1.815 13.404 4.835z"/>
    </g>
</svg>
