<svg xmlns="http://www.w3.org/2000/svg" width="50" height="50" viewBox="0 0 50 50">
    <g fill="none" fill-rule="evenodd">
        <circle cx="25" cy="25" r="25" fill="#6E6AEA"/>
        <path fill="#FFF" d="M25.222 19.962c-.34.568-.72 1.249-2.876 5.033 7.53-1.703 11.2-7.227 10.519-9.763-.151-.491-.72-.756-1.21-.756-.871 0-2.271.492-3.558.946-.605.227-.908.34-1.438.492-.037.945-.567 2.459-1.437 4.048zm-9.649 13.32c0-.53.076-1.212.265-1.893.946-3.254 4.351-10.065 7.605-15.21-1.21-.265-1.854-.909-2.194-1.665-.265-.568-.114-.909.719-.984 1.437-.114 2.875-.606 4.275-1.098 1.362-.491 2.687-.832 4.125-.908 2.08-.075 3.935.454 4.843 3.217.87 2.648.151 4.54-1.173 6.545-1.892 2.952-5.903 6.055-10.633 6.698-1.135.151-1.93.075-2.535-.152-1.021 1.968-2.232 4.39-3.443 7.303-.303.681-.605.681-1.135.151-.416-.454-.719-1.059-.719-2.005z"/>
    </g>
</svg>
