<svg xmlns="http://www.w3.org/2000/svg" width="14" height="14" viewBox="0 0 14 14">
    <g fill="#8D8D8D" fill-rule="nonzero">
        <path d="M13.441 4.274C12.703 2.552 11.45 1.3 9.714.559A6.877 6.877 0 0 0 6.988 0c-.949 0-1.85.187-2.717.56-1.72.738-2.98 1.989-3.72 3.714A6.819 6.819 0 0 0 0 6.992c0 .95.18 1.863.551 2.727.74 1.724 2 2.983 3.72 3.722A6.807 6.807 0 0 0 6.988 14a6.88 6.88 0 0 0 2.725-.559c1.736-.74 2.99-2 3.728-3.722A6.854 6.854 0 0 0 14 6.992c0-.95-.187-1.852-.559-2.718zm-1.117 5.813a6.143 6.143 0 0 1-2.25 2.244 6.026 6.026 0 0 1-3.085.827c-.835 0-1.63-.161-2.389-.49a6.258 6.258 0 0 1-1.96-1.31A6.225 6.225 0 0 1 1.333 9.39 6.033 6.033 0 0 1 .85 6.992c0-1.11.273-2.138.819-3.078A6.146 6.146 0 0 1 3.912 1.67 5.98 5.98 0 0 1 6.988.842c1.11 0 2.143.278 3.085.828a6.162 6.162 0 0 1 2.25 2.244c.552.942.827 1.968.827 3.078 0 1.11-.273 2.146-.826 3.095z"/>
        <path d="M7.827 7.234v-3.82A.424.424 0 0 0 7.403 3 .414.414 0 0 0 7 3.413v3.88c0 .007.015.037.015.059a.387.387 0 0 0 .11.332l2.189 2.205a.414.414 0 0 0 .564 0 .4.4 0 0 0 0-.575l-2.05-2.08z"/>
    </g>
</svg>
